REM MD5 29366d6bfbda5a2ba748a89932d926c0
FILE "Eidos Demo CD Volume 6 (USA).bin" BINARY
  TRACK 01 MODE2/2352
    INDEX 01 00:00:00
  TRACK 02 AUDIO
    INDEX 00 27:06:07
    INDEX 01 27:08:07
  TRACK 03 AUDIO
    INDEX 00 29:42:60
    INDEX 01 29:44:60
  TRACK 04 AUDIO
    INDEX 00 32:04:03
    INDEX 01 32:06:03
REM LEADOUT 32:11:74
